<?xml version="1.0" encoding="UTF-8"?>
<svg version="1.1" xmlns="http://www.w3.org/2000/svg" width="500" height="500">
<path d="M0 0 C165 0 330 0 500 0 C500 165 500 330 500 500 C335 500 170 500 0 500 C0 335 0 170 0 0 Z " fill="#FEFEFE" transform="translate(0,0)"/>
<path d="M0 0 C9.86476956 8.43638664 18.22823472 19.62553541 19.33984375 32.96484375 C19.35686236 34.69393451 19.36108292 36.42317835 19.35546875 38.15234375 C19.35321289 39.05339844 19.35095703 39.95445312 19.34863281 40.8828125 C19.34573242 41.56988281 19.34283203 42.25695312 19.33984375 42.96484375 C6.65713524 43.70621293 -5.95587228 44.10293379 -18.66015625 43.96484375 C-18.87929688 43.10761719 -19.0984375 42.25039062 -19.32421875 41.3671875 C-22.03259281 31.46880038 -22.03259281 31.46880038 -28.66015625 23.96484375 C-36.68817598 19.42726738 -43.7760221 18.76057347 -52.84765625 18.71484375 C-53.85119141 18.69421875 -54.85472656 18.67359375 -55.88867188 18.65234375 C-64.163862 18.60927184 -71.53576494 19.71968596 -78.16015625 25.02734375 C-78.80984375 25.53394531 -79.45953125 26.04054687 -80.12890625 26.5625 C-82.10016203 28.36780823 -82.61436582 29.47523842 -82.86328125 32.13671875 C-82.96012311 37.46302086 -83.02390887 41.58177215 -79.66015625 45.96484375 C-69.77666706 53.73216007 -55.07568467 56.81183216 -43.04150391 59.50073242 C-20.63428202 64.52161946 4.3535839 71.28272703 17.76953125 91.31640625 C25.37708719 104.1470603 27.80327251 119.74579966 24.46484375 134.3046875 C20.63701782 148.45331826 12.5436612 161.66722097 -0.33203125 169.2265625 C-23.30015654 181.73092686 -54.57400655 184.51143796 -79.6484375 177.3515625 C-95.98258096 171.99996553 -110.1413611 162.3259553 -118.31640625 146.82421875 C-119.86019446 143.57015536 -121.29040024 140.29555745 -122.66015625 136.96484375 C-123.15708984 135.78921875 -123.15708984 135.78921875 -123.6640625 134.58984375 C-126.08475722 128.22821126 -126.35752294 121.71669732 -126.66015625 114.96484375 C-125.81195313 114.91585937 -124.96375 114.866875 -124.08984375 114.81640625 C-117.77584797 114.41397575 -111.60290955 113.86416569 -105.34765625 112.90234375 C-100.02872951 112.0928115 -95.0328941 111.77957693 -89.66015625 111.96484375 C-89.51320312 112.6196875 -89.36625 113.27453125 -89.21484375 113.94921875 C-86.48244882 125.06723952 -82.58830661 135.50252043 -72.66015625 141.96484375 C-61.60072277 147.99389946 -46.96396877 149.32445571 -34.73828125 146.09375 C-26.25039717 143.05524689 -19.2584502 138.76647449 -15.16015625 130.52734375 C-13.25929479 125.52061043 -12.56412375 121.2066918 -14.33129883 115.97973633 C-16.82260937 110.52235734 -19.42485238 108.15510549 -24.84765625 105.71484375 C-25.54890625 105.38258789 -26.25015625 105.05033203 -26.97265625 104.70800781 C-33.94182933 101.56073915 -41.08959736 99.88788327 -48.55761719 98.39599609 C-72.92334577 93.39949392 -97.67107396 86.21759274 -113.125 65.4296875 C-120.70438333 53.26024506 -122.60040996 39.82199138 -119.59765625 25.83984375 C-115.8075028 12.60074962 -107.50818119 2.36481776 -95.91015625 -4.84765625 C-89.73181482 -8.23476729 -83.48918312 -10.36565214 -76.66015625 -12.03515625 C-75.77585938 -12.26074219 -74.8915625 -12.48632812 -73.98046875 -12.71875 C-50.21774777 -17.71236528 -19.63914225 -15.02495318 0 0 Z " fill="#777778" transform="translate(300.66015625,167.03515625)"/>
</svg>
