<?xml version="1.0" encoding="UTF-8"?>
<svg version="1.1" xmlns="http://www.w3.org/2000/svg" width="250" height="250">
<path d="M0 0 C3.87038043 1.62601781 6.72024572 4.14407782 9.890625 6.859375 C11.32236559 8.05560692 12.75602054 9.24955065 14.19140625 10.44140625 C14.92697754 11.05322754 15.66254883 11.66504883 16.42041016 12.29541016 C19.90215319 15.14007155 23.48753676 17.84185972 27.078125 20.546875 C33.70817284 25.56282916 40.14919962 30.77157818 46.54223633 36.08520508 C51.73708776 40.39367407 57.03195715 44.53478464 62.40234375 48.62109375 C66.0060932 51.37351143 69.54303279 54.20712171 73.078125 57.046875 C77.93401622 60.94665176 82.80312776 64.82762131 87.703125 68.671875 C88.27812744 69.12312744 88.85312988 69.57437988 89.44555664 70.03930664 C92.3167617 72.29101866 95.19069711 74.53920035 98.06640625 76.78515625 C107.01489873 83.78325503 115.84299211 90.92273723 124.640625 98.109375 C123.29416497 101.19691845 121.90581925 102.99934154 119.2890625 105.10546875 C118.61093506 105.65726807 117.93280762 106.20906738 117.23413086 106.77758789 C116.50202393 107.36145264 115.76991699 107.94531738 115.015625 108.546875 C114.25580322 109.16232178 113.49598145 109.77776855 112.71313477 110.41186523 C111.13258934 111.69126087 109.54963122 112.96768126 107.96435547 114.24121094 C105.14536295 116.50754113 102.3410336 118.79149402 99.53710938 121.07641602 C96.91740712 123.20998459 94.29291636 125.33761988 91.66845703 127.46533203 C88.11630931 130.34519752 84.56578251 133.22705669 81.015625 136.109375 C80.36456787 136.63732666 79.71351074 137.16527832 79.04272461 137.70922852 C75.21784239 140.81436682 71.41869407 143.94742181 67.640625 147.109375 C67.91777344 147.98980469 68.19492188 148.87023437 68.48046875 149.77734375 C68.84269531 150.93878906 69.20492187 152.10023438 69.578125 153.296875 C69.93777344 154.44542969 70.29742187 155.59398437 70.66796875 156.77734375 C76.11977543 175.45361322 73.33650934 196.39433387 64.27734375 213.39453125 C61.73722787 217.60784995 58.80554732 221.35376441 55.640625 225.109375 C55.20492187 225.70105469 54.76921875 226.29273438 54.3203125 226.90234375 C44.75998543 239.4109154 26.91581644 247.99564925 11.640625 250.109375 C-11.42964688 252.0339235 -31.10774102 247.69442123 -49.3125 232.81640625 C-54.00264652 228.78352433 -57.7783755 224.13584895 -61.359375 219.109375 C-61.92269531 218.32046875 -62.48601563 217.5315625 -63.06640625 216.71875 C-73.33888352 201.01096197 -75.72536706 180.87962208 -72.97851562 162.57080078 C-72.08036405 158.31007971 -70.82106114 154.21266261 -69.359375 150.109375 C-69.029375 149.119375 -68.699375 148.129375 -68.359375 147.109375 C-75.46941428 140.96236698 -82.58389809 134.84721168 -89.95703125 129.015625 C-93.41112627 126.27481465 -96.81350699 123.47215903 -100.22265625 120.67578125 C-104.70218433 117.00536333 -109.20276208 113.3607404 -113.70166016 109.71411133 C-117.61215117 106.54116368 -121.49810415 103.34206688 -125.359375 100.109375 C-124.03153783 97.07977652 -122.7016749 95.283678 -120.12109375 93.2265625 C-119.47261475 92.70441162 -118.82413574 92.18226074 -118.15600586 91.64428711 C-117.45999268 91.09651611 -116.76397949 90.54874512 -116.046875 89.984375 C-114.96708374 89.12114624 -114.96708374 89.12114624 -113.86547852 88.24047852 C-108.50596942 83.97075799 -103.08052318 79.78921398 -97.6328125 75.6328125 C-94.02100427 72.86412546 -90.47008179 70.02135799 -86.921875 67.171875 C-82.06592347 63.27217239 -77.19687318 59.39112943 -72.296875 55.546875 C-71.72187256 55.09562256 -71.14687012 54.64437012 -70.55444336 54.17944336 C-67.6832383 51.92773134 -64.80930289 49.67954965 -61.93359375 47.43359375 C-55.66863969 42.53398722 -49.45690477 37.57794573 -43.296875 32.546875 C-38.51545097 28.64258788 -33.70519244 24.79055842 -28.796875 21.046875 C-22.68015305 16.38106088 -16.66891396 11.59174531 -10.671875 6.7734375 C-10.10339844 6.32258789 -9.53492187 5.87173828 -8.94921875 5.40722656 C-7.4989755 4.22333634 -6.11236512 2.96257127 -4.734375 1.6953125 C-2.359375 0.109375 -2.359375 0.109375 0 0 Z " fill="#356AC3" transform="translate(125.359375,-0.109375)"/>
<path d="M0 0 C2.48121073 1.900744 4.78022895 3.87692537 7.0546875 6.01953125 C7.725 6.64859375 8.3953125 7.27765625 9.0859375 7.92578125 C23.81725087 23.12475536 29.70244125 41.38074295 29.52832031 62.16723633 C29.02228243 79.36572285 23.12871624 93.8786907 12.0546875 107.01953125 C11.61898437 107.61121094 11.18328125 108.20289063 10.734375 108.8125 C1.17404793 121.32107165 -16.67012106 129.9058055 -31.9453125 132.01953125 C-55.01558438 133.94407975 -74.69367852 129.60457748 -92.8984375 114.7265625 C-97.58858402 110.69368058 -101.364313 106.0460052 -104.9453125 101.01953125 C-105.50863281 100.230625 -106.07195312 99.44171875 -106.65234375 98.62890625 C-117.24597406 82.43003863 -119.48477838 61.41603375 -116.33203125 42.59765625 C-112.04157232 24.67979254 -100.08723689 7.87437807 -84.6484375 -2.11328125 C-57.14315791 -18.71594346 -26.61697717 -17.89762258 0 0 Z " fill="#A0C3FF" transform="translate(168.9453125,117.98046875)"/>
<path d="M0 0 C0 34.32 0 68.64 0 104 C-5.28 104.66 -10.56 105.32 -16 106 C-37.72024482 111.92370313 -53.88673138 124.56747662 -65 144 C-65.33 144.99 -65.66 145.98 -66 147 C-68.878418 145.6685435 -71.19196251 144.16701678 -73.6171875 142.12890625 C-74.29942383 141.56018799 -74.98166016 140.99146973 -75.68457031 140.40551758 C-76.40741211 139.79732178 -77.13025391 139.18912598 -77.875 138.5625 C-83.27311794 134.06387606 -88.69847 129.6205252 -94.25 125.3125 C-99.91575692 120.90436514 -105.40846332 116.32096947 -110.8671875 111.66015625 C-115.51505625 107.69682352 -120.2574203 103.84918793 -125 100 C-123.67216283 96.97040152 -122.3422999 95.174303 -119.76171875 93.1171875 C-119.11323975 92.59503662 -118.46476074 92.07288574 -117.79663086 91.53491211 C-117.10061768 90.98714111 -116.40460449 90.43937012 -115.6875 89.875 C-114.60770874 89.01177124 -114.60770874 89.01177124 -113.50610352 88.13110352 C-108.14659442 83.86138299 -102.72114818 79.67983898 -97.2734375 75.5234375 C-93.66162927 72.75475046 -90.11070679 69.91198299 -86.5625 67.0625 C-81.70654847 63.16279739 -76.83749818 59.28175443 -71.9375 55.4375 C-71.36249756 54.98624756 -70.78749512 54.53499512 -70.19506836 54.07006836 C-67.3238633 51.81835634 -64.44992789 49.57017465 -61.57421875 47.32421875 C-55.30926469 42.42461222 -49.09752977 37.46857073 -42.9375 32.4375 C-38.15607597 28.53321288 -33.34581744 24.68118342 -28.4375 20.9375 C-22.32077805 16.27168588 -16.30953896 11.48237031 -10.3125 6.6640625 C-9.46558594 5.98585449 -9.46558594 5.98585449 -8.6015625 5.29394531 C-7.11720575 4.09469367 -5.65147673 2.87248471 -4.1875 1.6484375 C-2 0 -2 0 0 0 Z " fill="#4185F4" transform="translate(125,0)"/>
<path d="M0 0 C8.38799348 7.23587378 14.39063671 15.22697567 19.5 25.0625 C19.5 25.3925 19.5 25.7225 19.5 26.0625 C-24.06 26.0625 -67.62 26.0625 -112.5 26.0625 C-105.32739423 8.13098557 -90.14948131 -4.23396388 -72.7265625 -11.71875 C-47.99843302 -21.05915726 -20.80309162 -15.9363133 0 0 Z " fill="#76A7F9" transform="translate(171.5,119.9375)"/>
</svg>
